<?xml version="1.0" standalone="no"?><!DOCTYPE svg PUBLIC "-//W3C//DTD SVG 1.1//EN" "http://www.w3.org/Graphics/SVG/1.1/DTD/svg11.dtd"><svg t="1612070943787" class="icon" viewBox="0 0 1024 1024" version="1.1" xmlns="http://www.w3.org/2000/svg" p-id="7081" xmlns:xlink="http://www.w3.org/1999/xlink" width="200" height="200"><defs><style type="text/css"></style></defs><path d="M605.034667 597.973333l24.277333 28.330667L629.333333 682.666667h-85.824v149.333333H629.333333l-0.149333 42.666667H213.333333a64 64 0 0 1-48.597333-105.642667l146.602667-171.050667A276.053333 276.053333 0 0 0 458.176 640a276.053333 276.053333 0 0 0 146.858667-42.026667zM735.509333 640v85.333333h85.333334v64h-85.333334v85.333334h-64v-85.333334h-85.333333v-64h85.333333v-85.333333h64z m-277.333333-490.666667c117.824 0 213.333333 95.509333 213.333333 213.333334s-95.509333 213.333333-213.333333 213.333333-213.333333-95.509333-213.333333-213.333333 95.509333-213.333333 213.333333-213.333334z" p-id="7082" fill="#8590A6"></path></svg>